<svg width="43" height="52" viewBox="0 0 43 52" fill="none" xmlns="http://www.w3.org/2000/svg">
<circle cx="21.5" cy="21.5" r="21" fill="white" stroke="black"/>
<path d="M26.3555 15.2967L26.3359 12.2108C26.3359 11.716 26.3294 11.1886 26.3164 10.6287C26.3164 10.0558 26.3099 9.44383 26.2969 8.79279C26.2969 8.12872 26.2904 7.4907 26.2773 6.87872C26.2643 6.25372 26.375 5.84357 26.6094 5.64825C26.8438 5.45294 27.0911 5.35529 27.3516 5.35529C27.612 5.35529 27.8464 5.45294 28.0547 5.64825C28.276 5.84357 28.3802 6.14956 28.3672 6.56622C28.1589 13.7928 28.0547 19.4568 28.0547 23.5584C28.0547 30.16 28.1003 34.2355 28.1914 35.785C28.2174 36.2016 28.1198 36.5141 27.8984 36.7225C27.6901 36.9308 27.4557 37.035 27.1953 37.035C26.9479 37.035 26.7201 36.9373 26.5117 36.742C26.3164 36.5337 26.2253 36.2212 26.2383 35.8045C26.2904 31.5207 26.3294 27.8423 26.3555 24.7693C25.1966 24.6652 23.6146 24.6131 21.6094 24.6131C19.526 24.6131 17.9831 24.6717 16.9805 24.7889C16.9935 28.7212 17.0391 32.354 17.1172 35.6873C17.1302 36.117 17.0195 36.4425 16.7852 36.6639C16.5508 36.8852 16.2969 36.9959 16.0234 36.9959C15.763 36.9959 15.5286 36.8983 15.3203 36.7029C15.112 36.4946 15.0208 36.0324 15.0469 35.3162C15.0729 34.6001 15.099 33.5714 15.125 32.2303C15.151 30.8891 15.1771 29.4634 15.2031 27.9529C15.2292 25.4139 15.2422 22.8162 15.2422 20.16C15.2422 17.5037 15.2357 15.6352 15.2227 14.5545C15.2227 13.4608 15.2161 12.4647 15.2031 11.5662C15.1641 10.16 15.0859 8.53237 14.9688 6.68341C14.9427 6.26674 15.0469 5.96075 15.2812 5.76544C15.5156 5.55711 15.776 5.45294 16.0625 5.45294C16.349 5.45294 16.6094 5.55711 16.8438 5.76544C17.0781 5.96075 17.1823 6.3644 17.1562 6.97638C17.1302 7.57534 17.1042 8.3045 17.0781 9.16388C17.0521 10.0233 17.0326 10.9738 17.0195 12.0154C17.0065 13.0441 17 14.1899 17 15.4529C16.987 16.6378 16.9805 19.1313 16.9805 22.9334C17.8398 23.0636 19.3958 23.1287 21.6484 23.1287C23.8099 23.1287 25.3789 23.0636 26.3555 22.9334C26.3555 22.4386 26.3555 21.9634 26.3555 21.5076V15.2967Z" fill="black"/>
<path d="M24.8613 12.4432L24.8682 14.9109C24.8682 16.6336 24.9046 18.5272 24.9775 20.5916C24.9821 20.7374 24.9434 20.8445 24.8613 20.9129C24.7839 20.9813 24.695 21.0154 24.5947 21.0154C24.4945 21.0154 24.4033 20.9767 24.3213 20.8992C24.2393 20.8218 24.1982 20.7101 24.1982 20.5643C24.2666 18.5135 24.3008 16.8045 24.3008 15.4373V11.8963C24.3008 11.632 24.2985 11.3836 24.2939 11.1512C24.1937 11.5386 24.0638 12.0421 23.9043 12.6619C23.5397 14.0246 23.2845 14.9679 23.1387 15.492C22.9928 16.0115 22.847 16.5242 22.7012 17.0301C22.4004 18.0737 22.1201 18.9897 21.8604 19.7781C21.833 19.8693 21.7783 19.9376 21.6963 19.9832C21.6188 20.0288 21.5436 20.0516 21.4707 20.0516C21.3294 20.0516 21.2337 19.9604 21.1836 19.7781C21.1608 19.7052 21.1061 19.5298 21.0195 19.2518C20.9375 18.9692 20.8327 18.6229 20.7051 18.2127C20.582 17.798 20.443 17.3354 20.2881 16.825C20.1377 16.31 19.9805 15.7837 19.8164 15.2459C19.6569 14.7082 19.4997 14.1749 19.3447 13.6463C19.1898 13.1177 19.0485 12.63 18.9209 12.1834C18.8161 11.8143 18.7272 11.4953 18.6543 11.2264L18.668 12.9217C18.668 14.9861 18.6885 16.6929 18.7295 18.0418C18.7751 19.3908 18.8001 20.1746 18.8047 20.3934C18.8092 20.6121 18.7979 20.7466 18.7705 20.7967C18.7477 20.8468 18.7158 20.8878 18.6748 20.9197C18.4971 21.0701 18.3216 21.0656 18.1484 20.9061C18.0664 20.8286 18.0299 20.6919 18.0391 20.4959C18.0527 20.2999 18.0641 20.0561 18.0732 19.7645C18.0824 19.4682 18.0892 19.1561 18.0938 18.8279C18.112 18.0532 18.1211 17.3354 18.1211 16.6746L18.0391 10.4539C18.0391 10.2488 18.0869 10.1053 18.1826 10.0233C18.2783 9.93667 18.39 9.89337 18.5176 9.89337C18.7591 9.89337 18.9255 10.0392 19.0166 10.3309C19.0257 10.3582 19.0485 10.4402 19.085 10.577C19.126 10.7091 19.1784 10.8846 19.2422 11.1033C19.306 11.3175 19.3789 11.5682 19.4609 11.8553C19.5475 12.1378 19.6387 12.4432 19.7344 12.7713C19.8301 13.0994 19.9303 13.4435 20.0352 13.8035C20.3997 15.0568 20.9033 16.7726 21.5459 18.951C21.8831 17.9894 22.5052 15.8087 23.4121 12.409C23.5898 11.7345 23.7676 11.0464 23.9453 10.3445C24.0273 10.0301 24.2165 9.87286 24.5127 9.87286C24.6312 9.87286 24.7246 9.93211 24.793 10.0506C24.8659 10.1645 24.8978 10.3309 24.8887 10.5496C24.8704 10.855 24.8613 11.4861 24.8613 12.4432Z" fill="black"/>
<path d="M22.8877 33.1922C22.8877 33.0418 22.9242 32.9256 22.9971 32.8436C23.0745 32.757 23.1611 32.7137 23.2568 32.7137C23.3571 32.7137 23.4437 32.7501 23.5166 32.8231C23.5941 32.8914 23.6283 32.9985 23.6191 33.1443C23.5736 34.0649 23.3252 34.8055 22.874 35.366C22.4411 35.9038 21.8988 36.1727 21.2471 36.1727C20.0166 36.1727 19.2214 35.2521 18.8613 33.4109C18.7246 32.7319 18.6562 31.9321 18.6562 31.0115C18.6562 30.0864 18.7132 29.2638 18.8271 28.5438C18.9411 27.8192 19.1143 27.1902 19.3467 26.657C19.8434 25.5177 20.5498 24.9481 21.4658 24.9481C22.1768 24.9481 22.7031 25.2283 23.0449 25.7889C23.4049 26.3859 23.585 27.3611 23.585 28.7147C23.585 28.8651 23.5508 28.979 23.4824 29.0565C23.4141 29.1294 23.332 29.1658 23.2363 29.1658C23.0267 29.1658 22.9219 29.0337 22.9219 28.7693C22.9219 27.0832 22.653 26.0783 22.1152 25.7547C21.9238 25.6408 21.7005 25.5838 21.4453 25.5838C21.1901 25.5838 20.96 25.6567 20.7549 25.8026C20.5544 25.9438 20.3743 26.1421 20.2148 26.3973C20.0599 26.6479 19.9255 26.9464 19.8115 27.2928C19.6976 27.6346 19.6042 28.0037 19.5312 28.4002C19.3854 29.2023 19.3125 29.9953 19.3125 30.7791C19.3125 31.5584 19.3376 32.185 19.3877 32.659C19.4378 33.1284 19.5085 33.5317 19.5996 33.869C19.6908 34.2016 19.7979 34.4751 19.9209 34.6893C20.0485 34.8989 20.1875 35.0652 20.3379 35.1883C20.5931 35.4025 20.9189 35.5096 21.3154 35.5096C21.7575 35.5096 22.1198 35.3296 22.4023 34.9695C22.735 34.5548 22.8968 33.9624 22.8877 33.1922Z" fill="black"/>
</svg>
